<?xml version="1.0" standalone="no"?>
<!DOCTYPE svg PUBLIC "-//W3C//DTD SVG 20010904//EN"
 "http://www.w3.org/TR/2001/REC-SVG-20010904/DTD/svg10.dtd">
<svg version="1.0" xmlns="http://www.w3.org/2000/svg"
 width="642.000000pt" height="642.000000pt" viewBox="0 0 642.000000 642.000000"
 preserveAspectRatio="xMidYMid meet">
<metadata>
Created by potrace 1.14, written by Peter Selinger 2001-2017
</metadata>
<g transform="translate(0.000000,642.000000) scale(0.100000,-0.100000)"
fill="#000000" stroke="none">
<path d="M0 3210 l0 -3210 3210 0 3210 0 0 3210 0 3210 -3210 0 -3210 0 0
-3210z m3964 1632 c3 -5 -1 -9 -9 -9 -8 0 -12 4 -9 9 3 4 7 8 9 8 2 0 6 -4 9
-8z m41 -52 c3 -5 1 -10 -4 -10 -6 0 -11 5 -11 10 0 6 2 10 4 10 3 0 8 -4 11
-10z m-510 -17 c-72 -3 -112 -8 -117 -16 -5 -8 -8 -7 -8 6 0 15 11 17 118 15
l117 -2 -110 -3z m218 0 c-18 -2 -48 -2 -65 0 -18 2 -4 4 32 4 36 0 50 -2 33
-4z m-322 -318 c4 11 8 -8 10 -45 l2 -65 9 88 c4 48 12 126 16 175 5 51 9
-379 10 -1058 1 -978 0 -1154 -13 -1208 -66 -281 -339 -416 -603 -297 -148 66
-242 230 -242 420 l0 65 -140 0 c-129 0 -140 -1 -150 -20 -26 -50 -118 -65
-165 -28 -85 66 -55 194 49 214 45 8 101 -17 121 -55 l16 -31 169 0 170 0 0
-67 c1 -175 39 -291 124 -371 70 -66 128 -87 241 -87 76 0 99 4 146 26 63 30
121 85 152 144 48 95 47 69 55 1315 4 646 9 1105 12 1020 3 -85 8 -146 11
-135z m312 258 c-34 -2 -93 -2 -130 0 -37 2 -9 3 62 3 72 0 102 -1 68 -3z
m298 -20 c-12 -20 -14 -14 -5 12 4 9 9 14 11 11 3 -2 0 -13 -6 -23z m-161 -39
c0 -4 -9 1 -20 11 -11 10 -20 23 -20 28 0 6 9 1 20 -11 11 -12 20 -24 20 -28z
m122 -6 c-18 -11 -36 -18 -39 -14 -4 4 3 9 15 13 12 3 20 8 18 12 -3 4 5 8 17
8 18 2 16 -1 -11 -19z m-77 -8 c13 -6 15 -9 5 -9 -8 0 -22 4 -30 9 -18 12 -2
12 25 0z m408 -345 c-3 -9 -8 -14 -10 -11 -3 3 -2 9 2 15 9 16 15 13 8 -4z
m201 -21 c3 -8 2 -12 -4 -9 -6 3 -10 10 -10 16 0 14 7 11 14 -7z m6 -51 c0
-21 -3 -24 -9 -14 -5 8 -7 20 -4 28 8 21 13 15 13 -14z m-215 -13 c-4 -6 10
-26 30 -45 20 -19 33 -35 28 -35 -23 1 -79 71 -66 83 10 11 15 8 8 -3z m193
-39 c-7 -11 -16 -17 -21 -14 -4 3 0 11 10 19 24 18 25 17 11 -5z m-48 -35 c0
-2 -8 -10 -17 -17 -16 -13 -17 -12 -4 4 13 16 21 21 21 13z m-69 -150 c-2
-120 -1 -126 18 -126 19 0 21 7 24 123 1 67 4 -24 5 -203 1 -179 5 -552 8
-830 7 -518 1 -668 -32 -827 -137 -663 -754 -1079 -1507 -1015 -229 20 -392
63 -570 152 -259 130 -454 326 -576 579 -31 65 -47 87 -73 100 -19 9 -41 32
-52 54 -25 52 -15 97 30 136 109 96 259 -54 164 -163 l-31 -35 40 -78 c168
-333 475 -557 884 -645 138 -30 471 -32 617 -5 201 38 409 126 555 234 231
172 381 411 451 718 19 81 22 217 29 1255 4 687 5 714 13 706 2 -3 4 -61 3
-130z"/>
</g>
</svg>
